<?xml version="1.0" encoding="utf-8"?>
<!-- Generator: Adobe Illustrator 16.0.0, SVG Export Plug-In . SVG Version: 6.00 Build 0)  -->
<!DOCTYPE svg PUBLIC "-//W3C//DTD SVG 1.1//EN" "http://www.w3.org/Graphics/SVG/1.1/DTD/svg11.dtd">
<svg version="1.1" id="图层_1" xmlns="http://www.w3.org/2000/svg" xmlns:xlink="http://www.w3.org/1999/xlink" x="0px" y="0px"
	 width="16px" height="176px" viewBox="0 0 16 176" enable-background="new 0 0 16 176" xml:space="preserve">
<g>
	<path fill="#999999" d="M8,14c-3.308,0-6-2.691-6-6c0-3.308,2.692-6,6-6c3.309,0,6,2.692,6,6C14,11.309,11.309,14,8,14z M8,2.533
		C4.986,2.533,2.533,4.985,2.533,8S4.986,13.467,8,13.467c3.014,0,5.467-2.453,5.467-5.467C13.467,4.985,11.014,2.533,8,2.533z"/>
	<path fill="#999999" d="M8,8.599c-0.33,0-0.599-0.27-0.599-0.6S7.67,7.401,8,7.401S8.6,7.669,8.6,8S8.33,8.599,8,8.599z M8,7.667
		c-0.183,0-0.332,0.15-0.332,0.333c0,0.184,0.149,0.332,0.332,0.332S8.332,8.184,8.332,8C8.332,7.817,8.183,7.667,8,7.667z"/>
	<path fill="#999999" d="M10.775,8.133H8.577c-0.074,0-0.134-0.06-0.134-0.134c0-0.073,0.06-0.133,0.134-0.133h2.198
		c0.074,0,0.133,0.06,0.133,0.133C10.908,8.074,10.85,8.133,10.775,8.133z"/>
	<path fill="#999999" d="M8,7.556c-0.074,0-0.133-0.059-0.133-0.133V4.13c0-0.074,0.06-0.133,0.133-0.133s0.133,0.06,0.133,0.133
		v3.293C8.133,7.498,8.074,7.556,8,7.556z"/>
</g>
<g>
	<rect x="5.247" y="43.879" fill="#999999" width="8.753" height="0.621"/>
	<rect x="5.247" y="41.086" fill="#999999" width="8.753" height="0.621"/>
	<rect x="5.247" y="38.293" fill="#999999" width="8.753" height="0.621"/>
	<rect x="5.247" y="35.5" fill="#999999" width="8.753" height="0.621"/>
	<rect x="2" y="43.879" fill="#999999" width="1.408" height="0.621"/>
	<rect x="2" y="41.086" fill="#999999" width="1.408" height="0.621"/>
	<rect x="2" y="38.293" fill="#999999" width="1.408" height="0.621"/>
	<rect x="2" y="35.5" fill="#999999" width="1.408" height="0.621"/>
</g>
<g>
	<g>
		<path fill="#999999" d="M8,76.723c-4.323,0-7.749-4.522-7.892-4.717L0,71.861l0.108-0.146C0.251,71.523,3.677,67,8,67
			s7.749,4.523,7.893,4.717L16,71.861l-0.107,0.145C15.749,72.198,12.323,76.723,8,76.723z M0.61,71.861
			c0.624,0.772,3.73,4.375,7.39,4.375c3.663,0,6.766-3.603,7.391-4.375c-0.625-0.773-3.729-4.377-7.391-4.377
			C4.337,67.484,1.234,71.087,0.61,71.861z"/>
	</g>
	<g>
		<path fill="#999999" d="M8,75.486c-1.999,0-3.625-1.627-3.625-3.625c0-2,1.626-3.627,3.625-3.627s3.625,1.627,3.625,3.627
			C11.625,73.859,9.999,75.486,8,75.486z M8,68.721c-1.732,0-3.142,1.408-3.142,3.141c0,1.734,1.41,3.141,3.142,3.141
			c1.732,0,3.141-1.408,3.141-3.141C11.141,70.128,9.732,68.721,8,68.721z"/>
	</g>
</g>
<path fill="#999999" d="M2.36,110v-0.838l0.177-0.086c0.62-0.303,1.344-0.922,1.344-1.667c0-0.054-0.002-0.106-0.007-0.16
	c-1.448-0.999-2.274-2.451-2.274-4.008C1.6,100.352,4.471,98,8,98c3.529,0,6.4,2.352,6.4,5.241c0,2.889-2.871,5.241-6.4,5.241
	c-0.28,0-0.561-0.018-0.836-0.047c-1.386,1.311-3.039,1.521-4.48,1.558L2.36,110z M8,98.629c-3.181,0-5.768,2.069-5.768,4.612
	c0,1.385,0.771,2.684,2.113,3.565l0.118,0.074l0.021,0.141c0.02,0.131,0.029,0.262,0.029,0.388c0,0.813-0.542,1.479-1.173,1.922
	c1.211-0.09,2.435-0.397,3.487-1.446l0.11-0.109l0.154,0.021c0.298,0.038,0.604,0.059,0.909,0.059c3.182,0,5.768-2.068,5.768-4.61
	C13.768,100.698,11.182,98.629,8,98.629z"/>
<g>
	<g>
		<path fill="#999999" d="M8.001,142.712c-3.309,0-6.001-2.691-6.001-6h0.429c0,3.072,2.499,5.572,5.572,5.572
			c3.072,0,5.571-2.5,5.571-5.572s-2.499-5.572-5.571-5.572v-0.428c3.308,0,5.999,2.691,5.999,6S11.309,142.712,8.001,142.712z"/>
	</g>
	<g>
		<polygon fill="#999999" points="8.018,132.53 5.292,130.958 8.018,129.384 		"/>
	</g>
	<g>
		<polygon fill="#999999" points="10.277,139.842 7.529,137.131 7.529,133.953 7.957,133.953 7.957,136.952 10.578,139.537 		"/>
	</g>
</g>
<g>
	<g>
		<path fill="#999999" d="M4.846,165.671c-0.206-0.206-0.324-0.489-0.324-0.778l0.005-6.904c-0.005-0.54,0.294-1.27,0.682-1.656
			l2.007-2.007c0.432-0.433,1.135-0.433,1.567,0l2.008,2.007c0.392,0.393,0.687,1.105,0.687,1.662l0.004,6.895
			c-0.006,0.297-0.125,0.582-0.328,0.783c-0.207,0.206-0.49,0.324-0.779,0.324L5.628,166C5.333,165.994,5.048,165.874,4.846,165.671
			z M8.451,154.654c-0.245-0.244-0.659-0.244-0.904,0l-2.007,2.008c-0.3,0.299-0.549,0.904-0.545,1.322l-0.005,6.908
			c0,0.326,0.303,0.633,0.645,0.64l4.738-0.005c0.164,0,0.33-0.069,0.446-0.188c0.119-0.118,0.189-0.284,0.193-0.457l-0.006-6.89
			c0-0.432-0.246-1.028-0.549-1.331L8.451,154.654z M7.214,157.743c-0.432-0.433-0.432-1.134,0-1.566
			c0.432-0.432,1.135-0.432,1.567,0c0.432,0.433,0.432,1.136,0,1.566C8.35,158.175,7.647,158.175,7.214,157.743z M8.451,156.508
			c-0.249-0.249-0.654-0.249-0.904,0c-0.249,0.249-0.249,0.655,0,0.904c0.25,0.25,0.655,0.25,0.904,0
			C8.699,157.163,8.699,156.757,8.451,156.508z"/>
	</g>
</g>
</svg>
