<?xml version="1.0" encoding="utf-8"?>
<!-- Generator: Adobe Illustrator 16.0.0, SVG Export Plug-In . SVG Version: 6.00 Build 0)  -->
<!DOCTYPE svg PUBLIC "-//W3C//DTD SVG 1.1//EN" "http://www.w3.org/Graphics/SVG/1.1/DTD/svg11.dtd">
<svg version="1.1" id="图层_1" xmlns="http://www.w3.org/2000/svg" xmlns:xlink="http://www.w3.org/1999/xlink" x="0px" y="0px"
	 width="190px" height="40px" viewBox="0 0 190 40" enable-background="new 0 0 190 40" xml:space="preserve">
<path fill="#66CC00" d="M15.556,37c-1.863-0.442-3.261-2.007-3.494-4.163v-7.02c-2.331-1.412-3.624-3.977-3.624-6.913
	c0-4.456,3.906-8.068,8.362-8.068c4.458,0,8.214,3.612,8.214,8.068c0,2.937-1.536,5.5-3.633,6.913v7.02
	c-0.233,2.124-1.631,3.674-3.494,4.143L15.556,37z M2.436,25.3C2.436,25.301,2.437,25.301,2.436,25.3
	c0.311,0.732,1.034,1.245,1.878,1.245c1.125,0,2.038-0.911,2.038-2.037c0-0.298-0.065-0.581-0.181-0.836
	c-0.003-0.009-0.003-0.017-0.007-0.022c-0.698-1.495-1.088-3.164-1.088-4.924c0-6.434,5.216-11.648,11.649-11.648
	s11.649,5.215,11.649,11.648c0,1.762-0.39,3.431-1.089,4.924c-0.001,0.004-0.001,0.006-0.001,0.01
	c-0.12,0.26-0.188,0.545-0.188,0.851c0,1.126,0.912,2.037,2.039,2.037c0.818,0,1.523-0.483,1.848-1.185
	c0.002,0,0.006-0.002,0.006-0.002c0.939-2.017,1.463-4.265,1.463-6.635C32.452,10.041,25.412,3,16.727,3C8.041,3,1,10.041,1,18.726
	C1,21.072,1.514,23.301,2.436,25.3z"/>
<line fill="none" stroke="#000000" stroke-miterlimit="10" x1="39.5" y1="32" x2="39.5" y2="8"/>
<g>
	<path fill="#EEEEEE" d="M55.007,19.438h-7.92V6.136h7.92v1.279h-6.641v10.743h6.641V19.438z M53.392,17.253l-1.581-3.072
		l-1.563,3.072l-1.154-0.568l2.007-3.924l-1.829-3.587l1.136-0.568l1.403,2.752l1.403-2.752l1.154,0.568L52.54,12.76l2.006,3.924
		L53.392,17.253z M61.01,20.822l-2.291-5.239l-2.237,5.239l-1.189-0.515l2.788-6.5v-3.41h1.279v3.41l2.841,6.5L61.01,20.822z
		 M57.76,5.035v2.327h4.156v3.978h-1.279V8.64h-3.072l-0.959,2.575l-1.225-0.444l1.101-2.895V5.035H57.76z"/>
	<path fill="#EEEEEE" d="M64.578,10.718h0.977V6.19h1.278v4.528h1.51V5.053h1.279v5.665h2.965v1.279h-8.009V10.718z M64.773,19.633
		l3.392-2.273v-4.528h1.279v3.675l2.397-1.616l0.693,1.066l-7.068,4.723L64.773,19.633z M65.039,15.566l1.35-1.333l0.888,0.888
		l-1.35,1.35L65.039,15.566z M70.26,8.196l1.35-1.332l0.888,0.888l-1.332,1.35L70.26,8.196z M77.062,11.5v4.724l3.178,3.675
		l-0.958,0.835l-2.859-3.321l-2.842,3.321l-0.958-0.835l3.161-3.692V11.5H77.062z M80.205,6.758h-3.143v2.113h2.664v7.405h-1.278
		V10.15h-4.049v6.126h-1.279V8.871h2.664V6.758H72.64V5.479h7.565V6.758z"/>
	<path fill="#EEEEEE" d="M87.128,6.101l-1.261,1.812V21h-1.278V9.742l-1.19,1.687l-1.047-0.746l3.729-5.328L87.128,6.101z
		 M87.946,19.898l1.9-2.023v-7.246h-2.753V9.351h2.753V5.195h1.277v4.155h6.837v1.279h-3.569v8.791h1.651l0.852-0.995l0.959,0.835
		l-1.242,1.438h-3.498V10.629h-1.99v7.778l-2.254,2.38L87.946,19.898z M95.191,8.232l-1.474-1.474l0.888-0.906l1.473,1.474
		L95.191,8.232z"/>
	<path fill="#EEEEEE" d="M115.877,8.161h-3.551v1.776h-1.279V8.161h-6.25v1.776h-1.279V8.161h-3.551V6.882h3.551V5h1.279v1.882h6.25
		V5h1.279v1.882h3.551V8.161z M115.504,20.592h-14.01v-1.813l10.086-6.587h-10.121v-1.278h11.861v1.687l-10.299,6.712h12.482V20.592
		z"/>
</g>
<g>
	<path fill="#DDDDDD" d="M48.361,32.824l-1.274-1.285v-4.641l1.263-1.358h2.909l1.264,1.358v4.641l-1.274,1.285H48.361z
		 M50.909,31.974l0.765-0.774v-3.972l-0.765-0.838h-2.208c-0.255,0.275-0.478,0.541-0.765,0.838v3.972l0.765,0.774H50.909z"/>
	<path fill="#DDDDDD" d="M53.429,35v-7.167h3.302l0.913,1.062v2.856l-0.913,1.073h-2.453V35H53.429z M56.318,31.974
		c0.159-0.191,0.297-0.329,0.478-0.542v-2.218c-0.17-0.202-0.276-0.298-0.467-0.531h-2.049v3.291H56.318z"/>
	<path fill="#DDDDDD" d="M62.903,31.889l-0.807,0.914h-2.814l-0.902-1.03v-2.889l0.892-1.061h2.665l0.892,1.061v1.848h-3.175v-0.85
		h2.325v-0.668l-0.446-0.542h-1.858c-0.148,0.18-0.275,0.317-0.446,0.531v2.251c0.128,0.148,0.255,0.308,0.425,0.499h2.06
		l0.552-0.616L62.903,31.889z"/>
	<path fill="#DDDDDD" d="M67.046,32.824v-3.558c-0.159-0.234-0.223-0.34-0.404-0.595h-1.805c-0.138,0.202-0.244,0.372-0.403,0.595
		v3.558h-0.85v-3.845l0.807-1.156h2.697l0.807,1.156v3.845H67.046z"/>
	<path fill="#DDDDDD" d="M73.664,25.529v5.935l-0.956,1.36h-3.005l-0.956-1.36v-5.935h0.85v5.67l0.552,0.774h2.113l0.552-0.785
		v-5.659H73.664z"/>
	<path fill="#DDDDDD" d="M78.635,26.39h-2.579c-0.276,0.275-0.5,0.488-0.796,0.796v1.561h3.375v0.85H75.26v1.613l0.775,0.765h2.601
		v0.851h-2.951l-1.274-1.243v-4.746l1.274-1.295h2.951V26.39z"/>
	<path fill="#DDDDDD" d="M79.966,31.592l0.605,0.605l-0.595,0.595l-0.605-0.605L79.966,31.592z"/>
	<path fill="#DDDDDD" d="M85.032,28.672h-2.485c-0.138,0.18-0.254,0.297-0.414,0.511v2.313l0.403,0.478h2.496v0.851h-2.899
		l-0.85-1.03v-2.888l0.839-1.083h2.91V28.672z"/>
	<path fill="#DDDDDD" d="M86.786,32.824l-1.137-1.317v-2.293l1.137-1.381h2.314l1.136,1.381v2.293l-1.136,1.317H86.786z
		 M88.696,31.974c0.246-0.286,0.426-0.478,0.69-0.785v-1.678c-0.244-0.286-0.435-0.51-0.69-0.828h-1.507l-0.69,0.818v1.688
		c0.224,0.255,0.446,0.499,0.69,0.785H88.696z"/>
	<path fill="#DDDDDD" d="M96.546,32.824v-3.281c-0.234-0.318-0.361-0.521-0.615-0.86h-0.615l-0.84,0.648v3.493h-0.85V29.32
		l-0.828-0.638h-0.615l-0.627,0.86v3.281h-0.85v-3.568l1.052-1.423h1.338l0.955,0.743l0.987-0.743h1.316l1.041,1.423v3.568H96.546z"
		/>
	<path fill="#DDDDDD" d="M100.904,34.15v-9.343h0.85v9.343H100.904z"/>
	<path fill="#DDDDDD" d="M105.749,31.241h0.627v-6.158h-0.627v-0.765h4.237v0.765h-0.627v6.158h0.627v0.765h-0.627v1.507h-0.765
		v-1.507h-2.846V31.241z M107.639,26.251l0.956,0.988v-2.156h-1.454v1.646L107.639,26.251z M108.096,27.833l-0.955-0.977v2.272
		l0.498-0.479l0.956,0.988v-2.294L108.096,27.833z M108.096,30.233l-0.955-0.978v1.985h1.454v-1.497L108.096,30.233z
		 M109.655,27.674l2.369-3.09v-0.573h0.765v0.584l2.378,3.079l-0.616,0.468l-2.145-2.793l-2.134,2.793L109.655,27.674z
		 M113.543,33.396l-3.261-1.911l0.383-0.669l1.613,0.945l1.562-2.038v-0.245h-3.78v-0.765h4.545v1.264l-1.667,2.177l0.987,0.573
		L113.543,33.396z M112.545,28.077l-0.796-0.795l0.529-0.542l0.808,0.807L112.545,28.077z"/>
	<path fill="#DDDDDD" d="M119.505,25.02v6.265h-3.027V25.02H119.505z M117.243,25.784v4.735h1.497v-4.735H117.243z M123.454,33.545
		v-5.329h-2.027v4.066l-1.02,1.157l-0.572-0.51l0.827-0.945v-7.336h3.79l0.744-0.426l0.36,0.67l-0.913,0.52h-3.217v2.039h4.268
		v0.765h-1.476v5.329H123.454z"/>
	<path fill="#DDDDDD" d="M131.657,33.565v-2.94h-2.867v1.667l-0.839,1.168l-0.626-0.445l0.7-0.966V24.34h8.069v9.046h-1.805v-0.764
		h1.04v-1.997h-2.908v2.94H131.657z M128.79,27.175h2.867v-2.07h-2.867V27.175z M128.79,29.861h2.867v-1.923h-2.867V29.861z
		 M135.33,25.104h-2.908v2.07h2.908V25.104z M132.422,29.861h2.908v-1.923h-2.908V29.861z"/>
	<path fill="#DDDDDD" d="M142.524,24.011h0.765v1.327h3.589v4.141h-7.433v2.347l-1.009,1.625l-0.647-0.403l0.893-1.435v-6.274h3.843
		V24.011z M146.114,28.714v-2.611h-6.669v2.611H146.114z"/>
	<path fill="#DDDDDD" d="M152.606,33.343h-4.045v-7.92h1.667V24h0.764v1.423h1.614V33.343z M151.843,26.188h-2.517v6.392h2.517
		V26.188z M150.281,28.354l1.009,1.009l-0.53,0.53l-1.01-0.998L150.281,28.354z M154.338,24v1.168h3.015v8.175h-2.719v-0.764h1.954
		v-6.646h-2.431v-0.096l-0.924,1.126l-0.596-0.478l0.936-1.137V24H154.338z M154.284,28.354l1.009,1.009l-0.531,0.53l-1.009-0.998
		L154.284,28.354z"/>
	<path fill="#DDDDDD" d="M159.577,33.439l-0.615-0.456l0.849-1.137v-3.791h7.656v2.867h-6.892v1.2L159.577,33.439z M168.189,25.562
		h-4.142v0.934h3.631v0.765h-8.038v-0.765h3.643v-0.934h-4.151v-0.765h4.151v-0.754h0.765v0.754h4.142V25.562z M160.575,30.158
		h3.218l-0.839-0.85l0.498-0.488h-2.877V30.158z M164.366,29.648l-0.51,0.51h2.846V28.82h-3.164L164.366,29.648z"/>
	<path fill="#DDDDDD" d="M178.971,28.333h-9.534v-0.765h9.534V28.333z M178.557,25.688h-8.706v-0.764h3.971v-0.914h0.766v0.914h3.97
		V25.688z M177.941,29.14v4.193h-7.475V29.14H177.941z M172.144,27.303l-1.009-1.02l0.531-0.531l1.02,1.019L172.144,27.303z
		 M171.231,29.903v2.664h5.945v-2.664H171.231z M174.479,32.059l-1.146-1.146l0.53-0.542l1.146,1.146L174.479,32.059z
		 M175.732,26.771l1.009-1.019l0.542,0.531l-1.019,1.02L175.732,26.771z"/>
	<path fill="#DDDDDD" d="M181.059,31.592l0.604,0.605l-0.595,0.595l-0.604-0.605L181.059,31.592z M181.494,25.529v5.372h-0.851
		v-5.372H181.494z"/>
</g>
</svg>
