<?xml version="1.0" standalone="no"?><!DOCTYPE svg PUBLIC "-//W3C//DTD SVG 1.1//EN" "http://www.w3.org/Graphics/SVG/1.1/DTD/svg11.dtd"><svg width="32" height="32" viewBox="0 0 32 32" version="1.1" xmlns="http://www.w3.org/2000/svg" xmlns:xlink="http://www.w3.org/1999/xlink"><defs><style type="text/css"><![CDATA[
@font-face { font-family: ifont; src: url("http://at.alicdn.com/t/font_1442373896_4754455.eot?#iefix") format("embedded-opentype"), url("http://at.alicdn.com/t/font_1442373896_4754455.woff") format("woff"), url("http://at.alicdn.com/t/font_1442373896_4754455.ttf") format("truetype"), url("http://at.alicdn.com/t/font_1442373896_4754455.svg#ifont") format("svg"); }

]]></style></defs><g class="transform-group"><g transform="scale(0.03125, 0.03125)"><path d="M915.484006 459.300754 108.813776 459.300754c-26.204825 0-47.451732 21.223371-47.451732 47.451732 0 26.180266 21.245883 47.451732 47.451732 47.451732L915.484006 554.204218c26.204825 0 47.450708-21.270443 47.450708-47.451732C962.934714 480.524125 941.688831 459.300754 915.484006 459.300754zM108.813776 269.495874 915.484006 269.495874c26.204825 0 47.450708-21.270443 47.450708-47.451732 0-26.228361-21.245883-47.451732-47.450708-47.451732L108.813776 174.59241c-26.204825 0-47.451732 21.222347-47.451732 47.451732C61.363068 248.226454 82.608951 269.495874 108.813776 269.495874zM915.484006 744.008075 108.813776 744.008075c-26.204825 0-47.451732 21.223371-47.451732 47.451732 0 26.180266 21.245883 47.451732 47.451732 47.451732L915.484006 838.911538c26.204825 0 47.450708-21.271466 47.450708-47.451732C962.934714 765.231445 941.688831 744.008075 915.484006 744.008075z" fill="#dddddd"></path></g></g></svg>